# xmcd
#
# Track frame offsets: 
#        150
#        35823
#        58919
#        75227
#        102478
#        120937
#        142013
#        159235
#        172214
#        188876
#        206656
#        225345
#        242756
#        266834
#        287242
#
# Disc length: 4103 seconds
#
# Revision: 0
# Processed by: cddbd v1.5.2PL0 Copyright (c) Steve Scherf et al.
# Submitted via: ExactAudioCopy v0.95b4
#
DISCID=d810050f
DTITLE=Various Artist - Blues Rarities The Whiskey Collection
DYEAR=1900
DGENRE=Blues
TTITLE0=Blues and Boogie Explosion - The Fish
TTITLE1=Auger, York and Farlowe - Everything`s Wrong
TTITLE2=Blues and Boogie Explosion - Old Bill
TTITLE3=Auger, York and Farlowe - I Never Loved A Girl
TTITLE4=Blues and Boogie Explosion - I Need You
TTITLE5=Blues and Boogie Explosion - Night Train
TTITLE6=Paul Millns - Bring It On Home To Me
TTITLE7=Bob Hall - After Hours Blues
TTITLE8=Blues and Boogie Explosion - Chicken Shack Boogie
TTITLE9=Chris Barber - Who`s Blues
TTITLE10=Paul Millns - Down In The Danger Zone
TTITLE11=Sammy Vomacka - Love In Vain
TTITLE12=Bill Ramsey and Toots Thielemans - I`d Rather Be A Gambler
TTITLE13=Chris Barber - The Weight
TTITLE14=Chris Barber - Snag It
EXTD=
EXTT0=
EXTT1=
EXTT2=
EXTT3=
EXTT4=
EXTT5=
EXTT6=
EXTT7=
EXTT8=
EXTT9=
EXTT10=
EXTT11=
EXTT12=
EXTT13=
EXTT14=
PLAYORDER=
